#!OML:ASF E:\id_vita\Project 1\Capture day 1\Session 1\Male1.ASF
:FULLY-SPECIFIED
:DEGREES
539
root -22.6271 15.5948 -1.02011 543.097 -28.7456 -538.063
lowerback 4.84917 -2.40224 -8.75243
upperback 2.45603 -3.86793 -3.43697
thorax 0.155136 -2.10843 1.50013
lowerneck -4.87159 -0.346164 2.16629
upperneck -21.9654 -2.27157 2.12842
head -5.85409 -2.28192 0.478575
rclavicle 5.08889e-014 -4.13472e-014
rhumerus -34.3574 -5.91373 -88.2031
rradius 27.2672
rwrist 6.49053
rhand -18.9609 35.2151
rfingers 7.12502
rthumb 7.34291 5.36257
lclavicle 5.08889e-014 -4.13472e-014
lhumerus -20.8832 18.2865 76.1549
lradius 15.3636
lwrist -12.7963
lhand -10.0758 46.8325
lfingers 7.12502
lthumb 15.9106 76.1989
rfemur -34.7162 -8.66559 27.5217
rtibia 30.6102
rfoot -11.9016 -4.32916
rtoes 11.4518
lfemur -18.418 18.8114 -23.7009
ltibia 42.807
lfoot -25.5444 -10.2188
ltoes 43.5563
540
root -22.6341 15.5956 -1.02702 542.947 -28.8052 -538.014
lowerback 5.11118 -2.35986 -8.78053
upperback 2.53195 -3.84952 -3.49688
thorax 0.0833002 -2.10287 1.46526
lowerneck -4.86612 -0.326557 2.27696
upperneck -22.0752 -2.25614 2.14468
head -5.89135 -2.29248 0.466948
rclavicle 2.94201e-014 -1.43125e-014
rhumerus -34.382 -5.18158 -88.7159
rradius 27.3917
rwrist 5.10667
rhand -19.1881 34.8372
rfingers 7.12502
rthumb 7.12359 4.97713
lclavicle 2.94201e-014 -1.43125e-014
lhumerus -20.7597 18.6499 75.9612
lradius 15.3914
lwrist -13.2013
lhand -10.3722 46.5958
lfingers 7.12502
lthumb 15.6252 75.9848
rfemur -34.6756 -8.83543 27.9194
rtibia 30.5544
rfoot -11.2131 -5.31258
rtoes 0.963888
lfemur -18.3362 18.8313 -23.5638
ltibia 42.9487
lfoot -25.2472 -10.9918
ltoes 45.8005
541
root -22.644 15.5816 -1.03433 543.245 -28.8458 -538.393
lowerback 5.15365 -2.33031 -9.17002
upperback 2.50261 -3.84934 -3.59445
thorax 0.0481902 -2.10886 1.58054
lowerneck -4.85425 -0.348284 2.2472
upperneck -22.1344 -2.2846 2.19214
head -5.91139 -2.31097 0.489381
rclavicle -9.10434e-014 3.81667e-014
rhumerus -34.3469 -4.48575 -88.9532
rradius 27.2371
rwrist 4.22531
rhand -19.2764 34.6967
rfingers 7.12502
rthumb 7.03836 4.83368
lclavicle -9.10434e-014 3.81667e-014
lhumerus -20.6807 19.3877 75.7469
lradius 15.3877
lwrist -13.948
lhand -10.2356 46.5884
lfingers 7.12502
lthumb 15.7568 75.967
rfemur -34.7275 -8.56031 27.5092
rtibia 30.5414
rfoot -11.1693 -5.1272
rtoes -3.90957
lfemur -18.5223 18.813 -23.9555
ltibia 43.1005
lfoot -25.1572 -11.4512
ltoes 47.1586
542
root -22.6569 15.5728 -1.04334 543.627 -28.8649 -538.691
lowerback 4.97496 -2.32414 -9.45745
upperback 2.46498 -3.84017 -3.64179
thorax 0.124073 -2.11055 1.6791
lowerneck -4.90847 -0.402278 2.15478
upperneck -22.2045 -2.37816 2.19204
head -5.92386 -2.35634 0.509144
rclavicle -1.47101e-014 -6.52014e-014
rhumerus -34.2742 -4.31647 -89.0067
rradius 27.0896
rwrist 3.75513
rhand -19.4302 34.7875
rfingers 7.12502
rthumb 6.88984 4.91958
lclavicle -1.47101e-014 -6.52014e-014
lhumerus -20.5673 19.3062 75.8586
lradius 15.5019
lwrist -13.6752
lhand -10.2449 46.7443
lfingers 7.12502
lthumb 15.7478 76.1236
rfemur -35.0074 -8.24518 27.1967
rtibia 30.5949
rfoot -11.3417 -5.21432
rtoes -6.47588
lfemur -18.811 18.8796 -24.3227
ltibia 43.2424
lfoot -25.099 -11.7372
ltoes 47.3331
543
root -22.6624 15.5757 -1.05728 543.667 -28.9669 -538.553
lowerback 4.85187 -2.34397 -9.41874
upperback 2.52294 -3.84232 -3.61602
thorax 0.252924 -2.11722 1.67529
lowerneck -4.96293 -0.41417 2.15982
upperneck -22.32 -2.42879 2.13944
head -5.95272 -2.38877 0.4953
rclavicle -4.49253e-014 -1.24042e-013
rhumerus -34.2084 -4.62105 -88.9958
rradius 27.1275
rwrist 3.87064
rhand -19.4643 35.0866
rfingers 7.12502
rthumb 6.85701 5.21769
lclavicle -4.49253e-014 -1.24042e-013
lhumerus -20.3824 18.7729 76.0299
lradius 15.6806
lwrist -13.054
lhand -10.6932 47.0889
lfingers 7.12502
lthumb 15.316 76.5017
rfemur -35.0723 -7.88921 27.28
rtibia 30.6178
rfoot -10.5957 -4.98713
rtoes -3.83827
lfemur -19.01 19.006 -24.1751
ltibia 43.4255
lfoot -25.0801 -11.9466
ltoes 47.1651
544
root -22.664 15.5827 -1.0702 543.754 -29.0294 -538.397
lowerback 4.73466 -2.32584 -9.3548
upperback 2.5367 -3.80075 -3.65026
thorax 0.321948 -2.09907 1.59683
lowerneck -5.04914 -0.44609 2.23321
upperneck -22.2727 -2.46519 2.20385
head -5.92365 -2.41602 0.502802
rclavicle -7.15625e-015 1.11319e-014
rhumerus -34.1855 -4.81197 -89.0803
rradius 27.1264
rwrist 4.07531
rhand -19.5153 35.4717
rfingers 7.12502
rthumb 6.80774 5.60115
lclavicle -7.15625e-015 1.11319e-014
lhumerus -20.1905 18.2617 76.0439
lradius 15.7939
lwrist -12.729
lhand -11.035 47.3436
lfingers 7.12502
lthumb 14.9867 76.7813
rfemur -35.1277 -7.21144 27.2424
rtibia 30.6241
rfoot -11.5519 -4.8316
rtoes -4.56283
lfemur -19.3243 19.0821 -24.0196
ltibia 43.6455
lfoot -24.9814 -12.212
ltoes 47.5303
